<mxfile host="app.diagrams.net" agent="Mozilla/5.0 (X11; Linux x86_64) AppleWebKit/537.36 (KHTML, like Gecko) Chrome/130.0.0.0 Safari/537.36" version="24.8.2">
  <diagram name="Overview" id="cYhiou0nNoetScMCU_Yd">
    <mxGraphModel grid="1" page="1" gridSize="10" guides="1" tooltips="1" connect="1" arrows="1" fold="1" pageScale="1" pageWidth="1169" pageHeight="827" math="0" shadow="0">
      <root>
        <mxCell id="0" />
        <mxCell id="1" parent="0" />
        <mxCell id="rxj9lb5bR_XUkC4SVsu_-1" value="" style="edgeStyle=orthogonalEdgeStyle;rounded=0;orthogonalLoop=1;jettySize=auto;html=1;startArrow=classic;startFill=1;" edge="1" parent="1" source="rxj9lb5bR_XUkC4SVsu_-2" target="rxj9lb5bR_XUkC4SVsu_-7">
          <mxGeometry relative="1" as="geometry" />
        </mxCell>
        <mxCell id="rxj9lb5bR_XUkC4SVsu_-2" value="MCU" style="rounded=1;whiteSpace=wrap;html=1;" vertex="1" parent="1">
          <mxGeometry x="625" y="399" width="120" height="60" as="geometry" />
        </mxCell>
        <mxCell id="rxj9lb5bR_XUkC4SVsu_-3" value="HMI" style="rounded=1;whiteSpace=wrap;html=1;" vertex="1" parent="1">
          <mxGeometry x="425" y="399" width="120" height="60" as="geometry" />
        </mxCell>
        <mxCell id="rxj9lb5bR_XUkC4SVsu_-4" style="edgeStyle=orthogonalEdgeStyle;rounded=0;orthogonalLoop=1;jettySize=auto;html=1;entryX=0.5;entryY=0;entryDx=0;entryDy=0;startArrow=classic;startFill=1;" edge="1" parent="1" source="rxj9lb5bR_XUkC4SVsu_-6" target="rxj9lb5bR_XUkC4SVsu_-2">
          <mxGeometry relative="1" as="geometry" />
        </mxCell>
        <mxCell id="rxj9lb5bR_XUkC4SVsu_-5" style="edgeStyle=orthogonalEdgeStyle;rounded=0;orthogonalLoop=1;jettySize=auto;html=1;entryX=0.5;entryY=0;entryDx=0;entryDy=0;" edge="1" parent="1" source="rxj9lb5bR_XUkC4SVsu_-6" target="rxj9lb5bR_XUkC4SVsu_-3">
          <mxGeometry relative="1" as="geometry" />
        </mxCell>
        <mxCell id="rxj9lb5bR_XUkC4SVsu_-6" value="Supervisory computer" style="rounded=1;whiteSpace=wrap;html=1;" vertex="1" parent="1">
          <mxGeometry x="525" y="259" width="120" height="60" as="geometry" />
        </mxCell>
        <mxCell id="rxj9lb5bR_XUkC4SVsu_-7" value="Physical equipment" style="rounded=1;whiteSpace=wrap;html=1;" vertex="1" parent="1">
          <mxGeometry x="625" y="509" width="120" height="60" as="geometry" />
        </mxCell>
      </root>
    </mxGraphModel>
  </diagram>
</mxfile>
